<svg xmlns="http://www.w3.org/2000/svg" width="24" height="24">
    <symbol id="heart" width="24" height="24" viewBox="0 0 24 24" fill="currentColor">
        <path fill-rule="evenodd"
              clip-rule="evenodd"
              d="M23.9088 4.6718C23.4845 1.68728 20.1681 0.643834 17.6384 1.10417C15.0392 1.57985 12.4555 3.8125 10.7973 6.1602C7.34202 2.44684 -1.21901 2.54658 0.146124 8.07829C1.72721 14.4539 9.01564 17.9755 12.4709 23.1006C12.9182 23.7604 14.1677 23.9905 14.5456 23.1006C17.1447 17.0855 24.9268 11.8837 23.9088 4.6718ZM20.199 10.1191C18.3325 13.725 15.2706 16.7096 13.2962 20.2465C11.0826 17.6072 8.22124 15.3209 5.98458 12.766C4.55776 11.1318 2.89953 9.22914 2.35965 7.08091C2.08199 5.97609 3.67851 5.96843 4.38036 5.93772C6.66328 5.81499 8.36005 6.54383 9.72519 7.93251C9.70977 7.96319 9.69435 7.99386 9.67893 8.01687C9.16218 9.09868 10.2882 10.0654 11.152 9.7815C11.1598 9.79685 11.1752 9.81224 11.1829 9.82756C11.4606 10.2956 12.2164 10.1038 12.2087 9.55133C12.2087 9.25212 12.147 8.98361 12.1007 8.71508C13.2885 6.65124 15.0701 5.00169 17.1602 3.85853C19.2118 2.73838 21.5872 3.7051 21.6104 6.12186C21.6258 7.48753 20.8083 8.95291 20.199 10.1191Z"
        />
    </symbol>

    <symbol id="burger" width="24" height="24" viewBox="0 0 24 24" fill="currentColor">
        <path d="M 2 5 L 2 7 L 22 7 L 22 5 L 2 5 z M 2 11 L 2 13 L 22 13 L 22 11 L 2 11 z M 2 17 L 2 19 L 22 19 L 22 17 L 2 17 z"/>
    </symbol>

    <symbol id="line" fill="currentColor" preserveAspectRatio="none">
        <path d="M0 0h1v112H0z"/>
    </symbol>
</svg>
